REM DIRINDEX 1\2,1\3,1\4
REM DIRNAME cjc151,folder01,folder02,folder03
TITLE ""
FILE "158 158_TOEFL_3900.mp3" MP3
  TRACK 01 AUDIO
    TITLE "2:cjc151_6881"
    INDEX 01 00:00:00
  TRACK 02 AUDIO
    TITLE "0:"
    INDEX 01 00:01:24
  TRACK 03 AUDIO
    TITLE "3:cjc151_6882"
    INDEX 01 00:03:10
  TRACK 04 AUDIO
    TITLE "0:"
    INDEX 01 00:06:39
  TRACK 05 AUDIO
    TITLE "2:cjc151_6883"
    INDEX 01 00:08:36
  TRACK 06 AUDIO
    TITLE "0:"
    INDEX 01 00:09:36
  TRACK 07 AUDIO
    TITLE "3:cjc151_6884"
    INDEX 01 00:11:11
  TRACK 08 AUDIO
    TITLE "0:"
    INDEX 01 00:14:64
  TRACK 09 AUDIO
    TITLE "2:cjc151_6885"
    INDEX 01 00:16:42
  TRACK 10 AUDIO
    TITLE "0:"
    INDEX 01 00:17:43
  TRACK 11 AUDIO
    TITLE "3:cjc151_6886"
    INDEX 01 00:19:22
  TRACK 12 AUDIO
    TITLE "0:"
    INDEX 01 00:22:29
  TRACK 13 AUDIO
    TITLE "2:cjc151_6887"
    INDEX 01 00:24:04
  TRACK 14 AUDIO
    TITLE "0:"
    INDEX 01 00:25:45
  TRACK 15 AUDIO
    TITLE "3:cjc151_6888"
    INDEX 01 00:27:24
  TRACK 16 AUDIO
    TITLE "0:"
    INDEX 01 00:31:49
  TRACK 17 AUDIO
    TITLE "2:cjc151_6889"
    INDEX 01 00:33:22
  TRACK 18 AUDIO
    TITLE "0:"
    INDEX 01 00:34:55
  TRACK 19 AUDIO
    TITLE "3:cjc151_6890"
    INDEX 01 00:36:31
  TRACK 20 AUDIO
    TITLE "0:"
    INDEX 01 00:39:74
  TRACK 21 AUDIO
    TITLE "2:cjc151_6891"
    INDEX 01 00:41:53
  TRACK 22 AUDIO
    TITLE "0:"
    INDEX 01 00:43:40
  TRACK 23 AUDIO
    TITLE "3:cjc151_6892"
    INDEX 01 00:45:18
  TRACK 24 AUDIO
    TITLE "0:"
    INDEX 01 00:49:27
  TRACK 25 AUDIO
    TITLE "2:cjc151_6893"
    INDEX 01 00:51:07
  TRACK 26 AUDIO
    TITLE "0:"
    INDEX 01 00:52:02
  TRACK 27 AUDIO
    TITLE "3:cjc151_6894"
    INDEX 01 00:53:51
  TRACK 28 AUDIO
    TITLE "0:"
    INDEX 01 00:57:41
  TRACK 29 AUDIO
    TITLE "2:cjc151_6895"
    INDEX 01 00:59:28
  TRACK 30 AUDIO
    TITLE "0:"
    INDEX 01 01:00:19
  TRACK 31 AUDIO
    TITLE "3:cjc151_6896"
    INDEX 01 01:01:72
  TRACK 32 AUDIO
    TITLE "0:"
    INDEX 01 01:05:42
  TRACK 33 AUDIO
    TITLE "2:cjc151_6897"
    INDEX 01 01:07:21
  TRACK 34 AUDIO
    TITLE "0:"
    INDEX 01 01:08:52
  TRACK 35 AUDIO
    TITLE "3:cjc151_6898"
    INDEX 01 01:10:30
  TRACK 36 AUDIO
    TITLE "0:"
    INDEX 01 01:14:31
  TRACK 37 AUDIO
    TITLE "2:cjc151_6899"
    INDEX 01 01:16:11
  TRACK 38 AUDIO
    TITLE "0:"
    INDEX 01 01:17:16
  TRACK 39 AUDIO
    TITLE "3:cjc151_6900"
    INDEX 01 01:18:68
  TRACK 40 AUDIO
    TITLE "0:"
    INDEX 01 01:22:33
  TRACK 41 AUDIO
    TITLE "2:cjc151_6901"
    INDEX 01 01:24:10
  TRACK 42 AUDIO
    TITLE "0:"
    INDEX 01 01:25:41
  TRACK 43 AUDIO
    TITLE "3:cjc151_6902"
    INDEX 01 01:27:20
  TRACK 44 AUDIO
    TITLE "0:"
    INDEX 01 01:31:12
  TRACK 45 AUDIO
    TITLE "2:cjc151_6903"
    INDEX 01 01:32:68
  TRACK 46 AUDIO
    TITLE "0:"
    INDEX 01 01:33:74
  TRACK 47 AUDIO
    TITLE "3:cjc151_6904"
    INDEX 01 01:35:45
  TRACK 48 AUDIO
    TITLE "0:"
    INDEX 01 01:39:14
  TRACK 49 AUDIO
    TITLE "2:cjc151_6905"
    INDEX 01 01:40:66
  TRACK 50 AUDIO
    TITLE "0:"
    INDEX 01 01:42:04
  TRACK 51 AUDIO
    TITLE "3:cjc151_6906"
    INDEX 01 01:43:56
  TRACK 52 AUDIO
    TITLE "0:"
    INDEX 01 01:48:42
  TRACK 53 AUDIO
    TITLE "2:cjc151_6907"
    INDEX 01 01:50:19
  TRACK 54 AUDIO
    TITLE "0:"
    INDEX 01 01:51:21
  TRACK 55 AUDIO
    TITLE "3:cjc151_6908"
    INDEX 01 01:52:73
  TRACK 56 AUDIO
    TITLE "0:"
    INDEX 01 01:57:15
  TRACK 57 AUDIO
    TITLE "2:cjc151_6909"
    INDEX 01 01:58:68
  TRACK 58 AUDIO
    TITLE "0:"
    INDEX 01 01:59:73
  TRACK 59 AUDIO
    TITLE "3:cjc151_6910"
    INDEX 01 02:01:50
  TRACK 60 AUDIO
    TITLE "0:"
    INDEX 01 02:06:34
  TRACK 61 AUDIO
    TITLE "2:cjc151_6911"
    INDEX 01 02:08:11
  TRACK 62 AUDIO
    TITLE "0:"
    INDEX 01 02:09:28
  TRACK 63 AUDIO
    TITLE "3:cjc151_6912"
    INDEX 01 02:11:14
  TRACK 64 AUDIO
    TITLE "0:"
    INDEX 01 02:15:52
  TRACK 65 AUDIO
    TITLE "2:cjc151_6913"
    INDEX 01 02:17:32
  TRACK 66 AUDIO
    TITLE "0:"
    INDEX 01 02:18:51
  TRACK 67 AUDIO
    TITLE "3:cjc151_6914"
    INDEX 01 02:20:36
  TRACK 68 AUDIO
    TITLE "0:"
    INDEX 01 02:24:34
  TRACK 69 AUDIO
    TITLE "2:cjc151_6915"
    INDEX 01 02:26:17
  TRACK 70 AUDIO
    TITLE "0:"
    INDEX 01 02:27:30
  TRACK 71 AUDIO
    TITLE "3:cjc151_6916"
    INDEX 01 02:29:08
  TRACK 72 AUDIO
    TITLE "0:"
    INDEX 01 02:33:09
  TRACK 73 AUDIO
    TITLE "2:cjc151_6917"
    INDEX 01 02:34:66
  TRACK 74 AUDIO
    TITLE "0:"
    INDEX 01 02:37:27
  TRACK 75 AUDIO
    TITLE "3:cjc151_6918"
    INDEX 01 02:39:06
  TRACK 76 AUDIO
    TITLE "0:"
    INDEX 01 02:43:25
  TRACK 77 AUDIO
    TITLE "2:cjc151_6919"
    INDEX 01 02:45:07
  TRACK 78 AUDIO
    TITLE "0:"
    INDEX 01 02:47:52
  TRACK 79 AUDIO
    TITLE "3:cjc151_6920"
    INDEX 01 02:49:38
  TRACK 80 AUDIO
    TITLE "0:"
    INDEX 01 02:53:37
  TRACK 81 AUDIO
    TITLE "2:cjc151_6921"
    INDEX 01 02:55:17
  TRACK 82 AUDIO
    TITLE "0:"
    INDEX 01 02:56:34
  TRACK 83 AUDIO
    TITLE "3:cjc151_6922"
    INDEX 01 02:58:13
  TRACK 84 AUDIO
    TITLE "0:"
    INDEX 01 03:02:36
  TRACK 85 AUDIO
    TITLE "2:cjc151_6923"
    INDEX 01 03:04:16
  TRACK 86 AUDIO
    TITLE "0:"
    INDEX 01 03:05:21
  TRACK 87 AUDIO
    TITLE "3:cjc151_6924"
    INDEX 01 03:07:00
  TRACK 88 AUDIO
    TITLE "0:"
    INDEX 01 03:10:46
